<svg xmlns="http://www.w3.org/2000/svg" width="1600" height="900" viewBox="0 0 1600 900">
<defs><linearGradient id="bg" x1="25.0%" y1="6.7%" x2="75.0%" y2="93.3%"><stop offset="0%" stop-color="#1c2b45"/><stop offset="75%" stop-color="#0b1220"/><stop offset="100%" stop-color="#080d17"/></linearGradient><radialGradient id="g0" cx="50%" cy="50%" r="50%"><stop offset="0%" stop-color="#33507e"/><stop offset="100%" stop-color="#33507e" stop-opacity="0"/></radialGradient><radialGradient id="g1" cx="50%" cy="50%" r="50%"><stop offset="0%" stop-color="#22385c"/><stop offset="100%" stop-color="#22385c" stop-opacity="0"/></radialGradient></defs>
<rect width="1600" height="900" fill="url(#bg)"/>
<ellipse cx="800" cy="360" rx="640" ry="360" fill="url(#g0)" opacity="0.5"/><ellipse cx="1248" cy="648" rx="480" ry="270" fill="url(#g1)" opacity="0.5"/>
<path d="M -100 320 Q 800 -80 1700 260" fill="none" stroke="#ffffff" stroke-opacity="0.028" stroke-width="1.4"/><path d="M -100 378 Q 800 -22 1700 318" fill="none" stroke="#ffffff" stroke-opacity="0.028" stroke-width="1.4"/><path d="M -100 436 Q 800 36 1700 376" fill="none" stroke="#ffffff" stroke-opacity="0.028" stroke-width="1.4"/><path d="M -100 494 Q 800 94 1700 434" fill="none" stroke="#ffffff" stroke-opacity="0.028" stroke-width="1.4"/><path d="M -100 552 Q 800 152 1700 492" fill="none" stroke="#ffffff" stroke-opacity="0.028" stroke-width="1.4"/><path d="M -100 610 Q 800 210 1700 550" fill="none" stroke="#ffffff" stroke-opacity="0.028" stroke-width="1.4"/><path d="M -100 668 Q 800 268 1700 608" fill="none" stroke="#ffffff" stroke-opacity="0.028" stroke-width="1.4"/><path d="M -100 726 Q 800 326 1700 666" fill="none" stroke="#ffffff" stroke-opacity="0.028" stroke-width="1.4"/><path d="M -100 784 Q 800 384 1700 724" fill="none" stroke="#ffffff" stroke-opacity="0.028" stroke-width="1.4"/><path d="M -100 842 Q 800 442 1700 782" fill="none" stroke="#ffffff" stroke-opacity="0.028" stroke-width="1.4"/><path d="M -100 900 Q 800 500 1700 840" fill="none" stroke="#ffffff" stroke-opacity="0.028" stroke-width="1.4"/><path d="M -100 958 Q 800 558 1700 898" fill="none" stroke="#ffffff" stroke-opacity="0.028" stroke-width="1.4"/><path d="M -100 1016 Q 800 616 1700 956" fill="none" stroke="#ffffff" stroke-opacity="0.028" stroke-width="1.4"/><path d="M -100 1074 Q 800 674 1700 1014" fill="none" stroke="#ffffff" stroke-opacity="0.028" stroke-width="1.4"/>
</svg>