<svg xmlns="http://www.w3.org/2000/svg" width="1600" height="900" viewBox="0 0 1600 900">
<defs><radialGradient id="bg" cx="65%" cy="30%" r="110%"><stop offset="0%" stop-color="#3d43b8"/><stop offset="45%" stop-color="#23255e"/><stop offset="100%" stop-color="#0b0b16"/></radialGradient><radialGradient id="g0" cx="50%" cy="50%" r="50%"><stop offset="0%" stop-color="#6d74f0"/><stop offset="100%" stop-color="#6d74f0" stop-opacity="0"/></radialGradient><radialGradient id="g1" cx="50%" cy="50%" r="50%"><stop offset="0%" stop-color="#2a2e86"/><stop offset="100%" stop-color="#2a2e86" stop-opacity="0"/></radialGradient><radialGradient id="g2" cx="50%" cy="50%" r="50%"><stop offset="0%" stop-color="#8a90ff"/><stop offset="100%" stop-color="#8a90ff" stop-opacity="0"/></radialGradient></defs>
<rect width="1600" height="900" fill="url(#bg)"/>
<ellipse cx="1120" cy="225" rx="736" ry="414" fill="url(#g0)" opacity="0.55"/><ellipse cx="480" cy="675" rx="640" ry="360" fill="url(#g1)" opacity="0.5"/><ellipse cx="1408" cy="540" rx="384" ry="216" fill="url(#g2)" opacity="0.22"/>
<path d="M -100 320 Q 800 -80 1700 260" fill="none" stroke="#ffffff" stroke-opacity="0.028" stroke-width="1.4"/><path d="M -100 378 Q 800 -22 1700 318" fill="none" stroke="#ffffff" stroke-opacity="0.028" stroke-width="1.4"/><path d="M -100 436 Q 800 36 1700 376" fill="none" stroke="#ffffff" stroke-opacity="0.028" stroke-width="1.4"/><path d="M -100 494 Q 800 94 1700 434" fill="none" stroke="#ffffff" stroke-opacity="0.028" stroke-width="1.4"/><path d="M -100 552 Q 800 152 1700 492" fill="none" stroke="#ffffff" stroke-opacity="0.028" stroke-width="1.4"/><path d="M -100 610 Q 800 210 1700 550" fill="none" stroke="#ffffff" stroke-opacity="0.028" stroke-width="1.4"/><path d="M -100 668 Q 800 268 1700 608" fill="none" stroke="#ffffff" stroke-opacity="0.028" stroke-width="1.4"/><path d="M -100 726 Q 800 326 1700 666" fill="none" stroke="#ffffff" stroke-opacity="0.028" stroke-width="1.4"/><path d="M -100 784 Q 800 384 1700 724" fill="none" stroke="#ffffff" stroke-opacity="0.028" stroke-width="1.4"/><path d="M -100 842 Q 800 442 1700 782" fill="none" stroke="#ffffff" stroke-opacity="0.028" stroke-width="1.4"/><path d="M -100 900 Q 800 500 1700 840" fill="none" stroke="#ffffff" stroke-opacity="0.028" stroke-width="1.4"/><path d="M -100 958 Q 800 558 1700 898" fill="none" stroke="#ffffff" stroke-opacity="0.028" stroke-width="1.4"/><path d="M -100 1016 Q 800 616 1700 956" fill="none" stroke="#ffffff" stroke-opacity="0.028" stroke-width="1.4"/><path d="M -100 1074 Q 800 674 1700 1014" fill="none" stroke="#ffffff" stroke-opacity="0.028" stroke-width="1.4"/>
</svg>