<svg xmlns="http://www.w3.org/2000/svg" width="1600" height="900" viewBox="0 0 1600 900">
<defs><linearGradient id="bg" x1="25.0%" y1="6.7%" x2="75.0%" y2="93.3%"><stop offset="0%" stop-color="#3a2c14"/><stop offset="70%" stop-color="#120e06"/><stop offset="100%" stop-color="#0c0904"/></linearGradient><radialGradient id="g0" cx="50%" cy="50%" r="50%"><stop offset="0%" stop-color="#7a5c28"/><stop offset="100%" stop-color="#7a5c28" stop-opacity="0"/></radialGradient><radialGradient id="g1" cx="50%" cy="50%" r="50%"><stop offset="0%" stop-color="#4a3818"/><stop offset="100%" stop-color="#4a3818" stop-opacity="0"/></radialGradient><radialGradient id="g2" cx="50%" cy="50%" r="50%"><stop offset="0%" stop-color="#a07a34"/><stop offset="100%" stop-color="#a07a34" stop-opacity="0"/></radialGradient></defs>
<rect width="1600" height="900" fill="url(#bg)"/>
<ellipse cx="480" cy="288" rx="672" ry="378" fill="url(#g0)" opacity="0.45"/><ellipse cx="1152" cy="594" rx="608" ry="342" fill="url(#g1)" opacity="0.5"/><ellipse cx="928" cy="180" rx="320" ry="180" fill="url(#g2)" opacity="0.16"/>
<path d="M -100 320 Q 800 -80 1700 260" fill="none" stroke="#ffffff" stroke-opacity="0.028" stroke-width="1.4"/><path d="M -100 378 Q 800 -22 1700 318" fill="none" stroke="#ffffff" stroke-opacity="0.028" stroke-width="1.4"/><path d="M -100 436 Q 800 36 1700 376" fill="none" stroke="#ffffff" stroke-opacity="0.028" stroke-width="1.4"/><path d="M -100 494 Q 800 94 1700 434" fill="none" stroke="#ffffff" stroke-opacity="0.028" stroke-width="1.4"/><path d="M -100 552 Q 800 152 1700 492" fill="none" stroke="#ffffff" stroke-opacity="0.028" stroke-width="1.4"/><path d="M -100 610 Q 800 210 1700 550" fill="none" stroke="#ffffff" stroke-opacity="0.028" stroke-width="1.4"/><path d="M -100 668 Q 800 268 1700 608" fill="none" stroke="#ffffff" stroke-opacity="0.028" stroke-width="1.4"/><path d="M -100 726 Q 800 326 1700 666" fill="none" stroke="#ffffff" stroke-opacity="0.028" stroke-width="1.4"/><path d="M -100 784 Q 800 384 1700 724" fill="none" stroke="#ffffff" stroke-opacity="0.028" stroke-width="1.4"/><path d="M -100 842 Q 800 442 1700 782" fill="none" stroke="#ffffff" stroke-opacity="0.028" stroke-width="1.4"/><path d="M -100 900 Q 800 500 1700 840" fill="none" stroke="#ffffff" stroke-opacity="0.028" stroke-width="1.4"/><path d="M -100 958 Q 800 558 1700 898" fill="none" stroke="#ffffff" stroke-opacity="0.028" stroke-width="1.4"/><path d="M -100 1016 Q 800 616 1700 956" fill="none" stroke="#ffffff" stroke-opacity="0.028" stroke-width="1.4"/><path d="M -100 1074 Q 800 674 1700 1014" fill="none" stroke="#ffffff" stroke-opacity="0.028" stroke-width="1.4"/>
</svg>